<svg width="24" height="24" viewBox="0 0 24 24" fill="none" xmlns="http://www.w3.org/2000/svg">
<path d="M16 8.4L7.12502 17.3C6.92502 17.5 6.68736 17.6 6.41202 17.6C6.13669 17.6 5.89936 17.5 5.70002 17.3C5.50002 17.1 5.40002 16.8623 5.40002 16.587C5.40002 16.3117 5.50002 16.0743 5.70002 15.875L14.6 7H7.00002C6.71669 7 6.47902 6.904 6.28702 6.712C6.09502 6.52 5.99936 6.28267 6.00002 6C6.00002 5.71667 6.09602 5.479 6.28802 5.287C6.48002 5.095 6.71736 4.99934 7.00002 5H17C17.2834 5 17.521 5.096 17.713 5.288C17.905 5.48 18.0007 5.71734 18 6V16C18 16.2833 17.904 16.521 17.712 16.713C17.52 16.905 17.2827 17.0007 17 17C16.7167 17 16.479 16.904 16.287 16.712C16.095 16.52 15.9994 16.2827 16 16V8.4Z" fill="white"/>
</svg>
