<svg width="56" height="56" viewBox="0 0 56 56" fill="none" xmlns="http://www.w3.org/2000/svg">
<path d="M28 51.3333C40.8866 51.3333 51.3333 40.8866 51.3333 28C51.3333 15.1133 40.8866 4.66663 28 4.66663C15.1133 4.66663 4.66663 15.1133 4.66663 28C4.66663 40.8866 15.1133 51.3333 28 51.3333Z" stroke="white" stroke-width="3" stroke-linecap="round" stroke-linejoin="round"/>
<path d="M22.1666 20.9191C22.1666 19.8054 22.1666 19.2486 22.3994 18.9377C22.6022 18.6668 22.9126 18.4973 23.2502 18.4732C23.6375 18.4455 24.1059 18.7466 25.0427 19.3489L36.0574 26.4298C36.8703 26.9523 37.2768 27.2136 37.4172 27.5459C37.5398 27.8362 37.5398 28.1637 37.4172 28.454C37.2768 28.7863 36.8703 29.0476 36.0574 29.5702L25.0427 36.651C24.1059 37.2533 23.6375 37.5544 23.2502 37.5267C22.9126 37.5026 22.6022 37.3331 22.3994 37.0622C22.1666 36.7513 22.1666 36.1945 22.1666 35.0809V20.9191Z" stroke="white" stroke-width="3" stroke-linecap="round" stroke-linejoin="round"/>
</svg>
