<svg width="32" height="32" viewBox="0 0 32 32" fill="none" xmlns="http://www.w3.org/2000/svg">
<path d="M14.4782 6.28331C14.9572 4.80921 17.0427 4.80921 17.5216 6.28331L19.2329 11.5502C19.4471 12.2094 20.0615 12.6558 20.7546 12.6558H26.2925C27.8425 12.6558 28.4869 14.6391 27.233 15.5502L22.7527 18.8053C22.1919 19.2127 21.9573 19.9349 22.1715 20.5941L23.8828 25.861C24.3618 27.3351 22.6746 28.5609 21.4207 27.6499L16.9404 24.3948C16.3796 23.9873 15.6202 23.9873 15.0595 24.3948L10.5792 27.6499C9.32526 28.5609 7.63809 27.3351 8.11705 25.861L9.82836 20.5941C10.0426 19.9349 9.80791 19.2127 9.24713 18.8053L4.76686 15.5502C3.51292 14.6391 4.15736 12.6558 5.70731 12.6558H11.2452C11.9384 12.6558 12.5527 12.2094 12.7669 11.5502L14.4782 6.28331Z" fill="#FACC15"/>
</svg>
